<svg xmlns="http://www.w3.org/2000/svg" viewBox="0 0 32 32">
  <rect width="32" height="32" fill="#ffffff"/>
  <g fill="#000000">
    <rect x="4" y="4" width="8" height="8" rx="1"/>
    <rect x="20" y="4" width="8" height="8" rx="1"/>
    <rect x="4" y="20" width="8" height="8" rx="1"/>
    <rect x="14" y="14" width="4" height="4"/>
    <rect x="22" y="14" width="2" height="2"/>
    <rect x="26" y="14" width="2" height="2"/>
    <rect x="22" y="18" width="2" height="2"/>
    <rect x="26" y="18" width="2" height="2"/>
    <rect x="22" y="22" width="2" height="2"/>
    <rect x="26" y="22" width="2" height="2"/>
    <rect x="14" y="22" width="2" height="2"/>
    <rect x="18" y="22" width="2" height="2"/>
    <rect x="14" y="26" width="2" height="2"/>
    <rect x="18" y="26" width="2" height="2"/>
    <rect x="22" y="26" width="2" height="2"/>
    <rect x="26" y="26" width="2" height="2"/>
  </g>
</svg>
